HIERARCHY
ROOT Hips
{
	OFFSET -0.001795 -0.223333 0.028219
	CHANNELS 6 Xposition Yposition Zposition Zrotation Yrotation Xrotation 
	JOINT LeftUpLeg
	{
		OFFSET 0.069520 -0.091406 -0.006815
		CHANNELS 3 Zrotation Yrotation Xrotation
		JOINT LeftLeg
		{
			OFFSET 0.034277 -0.375199 -0.004496
			CHANNELS 3 Zrotation Yrotation Xrotation
			JOINT LeftFoot
			{
				OFFSET -0.013596 -0.397961 -0.043693
				CHANNELS 3 Zrotation Yrotation Xrotation
				JOINT LeftToe
				{
					OFFSET 0.026358 -0.055791 0.119288
					CHANNELS 3 Zrotation Yrotation Xrotation
					End Site
					{
						OFFSET 0.000000 0.000000 0.000000
					}
				}
			}
		}
	}
	JOINT RightUpLeg
	{
		OFFSET -0.067670 -0.090522 -0.004320
		CHANNELS 3 Zrotation Yrotation Xrotation
		JOINT RightLeg
		{
			OFFSET -0.038290 -0.382569 -0.008850
			CHANNELS 3 Zrotation Yrotation Xrotation
			JOINT RightFoot
			{
				OFFSET 0.015774 -0.398415 -0.042312
				CHANNELS 3 Zrotation Yrotation Xrotation
				JOINT RightToe
				{
					OFFSET -0.025372 -0.048144 0.123348
					CHANNELS 3 Zrotation Yrotation Xrotation
					End Site
					{
						OFFSET 0.000000 0.000000 0.000000
					}
				}
			}
		}
	}
	JOINT Spine
	{
		OFFSET -0.002533 0.108963 -0.026696
		CHANNELS 3 Zrotation Yrotation Xrotation
		JOINT Spine1
		{
			OFFSET 0.005487 0.135180 0.001092
			CHANNELS 3 Zrotation Yrotation Xrotation
			JOINT Spine2
			{
				OFFSET 0.001457 0.052922 0.025425
				CHANNELS 3 Zrotation Yrotation Xrotation
				JOINT Neck
				{
					OFFSET -0.002778 0.213870 -0.042857
					CHANNELS 3 Zrotation Yrotation Xrotation
					JOINT Head
					{
						OFFSET 0.005152 0.064970 0.051349
						CHANNELS 3 Zrotation Yrotation Xrotation
						End Site
						{
							OFFSET 0.000000 0.000000 0.000000
						}
					}
				}
				JOINT LeftShoulder
				{
					OFFSET 0.078845 0.121749 -0.034090
					CHANNELS 3 Zrotation Yrotation Xrotation
					JOINT LeftArm
					{
						OFFSET 0.090977 0.030469 -0.008868
						CHANNELS 3 Zrotation Yrotation Xrotation
						JOINT LeftForeArm
						{
							OFFSET 0.259612 -0.012772 -0.027456
							CHANNELS 3 Zrotation Yrotation Xrotation
							JOINT LeftHand
							{
								OFFSET 0.249234 0.008986 -0.001171
								CHANNELS 3 Zrotation Yrotation Xrotation
								End Site
								{
									OFFSET 0.000000 0.000000 0.000000
								}
							}
						}
					}
				}
				JOINT RightShoulder
				{
					OFFSET -0.081759 0.118833 -0.038615
					CHANNELS 3 Zrotation Yrotation Xrotation
					JOINT RightArm
					{
						OFFSET -0.096012 0.032551 -0.009143
						CHANNELS 3 Zrotation Yrotation Xrotation
						JOINT RightForeArm
						{
							OFFSET -0.253742 -0.013329 -0.021401
							CHANNELS 3 Zrotation Yrotation Xrotation
							JOINT RightHand
							{
								OFFSET -0.255298 0.007772 -0.005559
								CHANNELS 3 Zrotation Yrotation Xrotation
								End Site
								{
									OFFSET 0.000000 0.000000 0.000000
								}
							}
						}
					}
				}
			}
		}
	}
}
MOTION
Frames: 18
Frame Time: 0.050000
0.065817 0.961009 -0.069688 -0.322394 5.335381 10.718231 3.488372 -0.851725 -10.996461 3.213636 -0.134323 -2.847155 -8.023257 -7.841458 12.852562 0.000000 0.000000 0.000000 -1.751347 0.630343 -6.474989 -3.067175 0.292179 -0.685246 -2.962269 -9.755708 11.167167 0.000000 0.000000 0.000000 -2.121758 0.237794 -9.396033 -1.494872 0.755268 -2.663116 -0.654573 7.837546 -2.206379 6.649115 -2.472617 -12.115388 0.000000 0.000000 0.000000 -2.683076 8.271182 -3.348546 -19.881940 2.210876 -2.104012 -132.820453 -47.830452 88.955680 0.000000 0.000000 0.000000 7.403479 -4.450473 -1.754778 33.102553 -10.909660 -5.277063 108.719930 48.410010 72.503955 0.000000 0.000000 0.000000 
0.069713 0.960208 -0.067073 -0.816834 2.895988 10.581181 3.479510 -0.759322 -9.951189 3.303648 -0.135333 -3.133456 -6.363076 -5.472340 12.579690 0.000000 0.000000 0.000000 -2.016897 0.652224 -6.728930 -2.838507 0.259978 -0.643427 -1.458118 -7.087250 10.976120 0.000000 0.000000 0.000000 -1.289426 0.298728 -9.229087 -1.639095 0.817174 -3.277235 -0.335872 5.844047 -0.384703 6.642104 -2.921204 -11.085970 0.000000 0.000000 0.000000 -3.966848 12.279608 -5.067749 -20.799358 10.505093 -3.506087 -120.930222 -42.508071 68.480776 0.000000 0.000000 0.000000 6.977420 -8.549375 -3.731963 30.769514 -17.295502 -6.148287 100.869729 42.599269 55.553267 0.000000 0.000000 0.000000 
0.072916 0.959144 -0.064846 -1.367630 0.388781 10.435437 3.850199 -0.677901 -9.260127 2.957103 -0.131140 -2.971004 -4.980887 -3.776950 11.950534 0.000000 0.000000 0.000000 -1.515248 0.703969 -7.202030 -2.701243 0.258628 -0.267784 -0.957936 -6.439012 10.956100 0.000000 0.000000 0.000000 -0.736204 0.337557 -8.836627 -1.772637 0.854470 -2.977882 0.202963 4.203422 0.422622 6.102577 -2.797292 -11.075813 0.000000 0.000000 0.000000 -5.585559 15.147965 -6.542948 -20.777131 15.793678 -4.250655 -112.011360 -38.236088 55.260927 0.000000 0.000000 0.000000 6.281720 -11.194947 -4.903504 28.146166 -21.216308 -6.278265 93.687092 39.199131 44.160890 0.000000 0.000000 0.000000 
0.075344 0.958159 -0.063303 -1.680460 -2.050985 9.934015 3.485528 -0.616474 -8.374439 3.442670 -0.210835 -2.540969 -3.932382 -2.730049 10.986786 0.000000 0.000000 0.000000 -1.619850 0.698742 -7.129419 -2.501301 0.271070 0.405674 0.046893 -4.631493 10.495260 0.000000 0.000000 0.000000 -0.245099 0.347581 -8.054051 -1.723095 0.818302 -3.058385 0.336710 3.107558 0.843479 5.828964 -2.887405 -10.473785 0.000000 0.000000 0.000000 -7.018180 16.136211 -7.274969 -20.639765 19.524102 -4.683182 -106.354249 -35.120095 47.559306 0.000000 0.000000 0.000000 5.769538 -12.062244 -5.255015 26.798402 -23.992678 -6.467340 90.563068 38.145132 39.650133 0.000000 0.000000 0.000000 
0.077024 0.957549 -0.062390 -1.804282 -3.624108 9.952112 3.697435 -0.566983 -7.874689 3.167811 -0.201242 -2.451491 -3.317191 -2.031001 10.588215 0.000000 0.000000 0.000000 -1.351479 0.719684 -7.318143 -2.712546 0.288731 0.451534 0.271462 -4.443264 10.606594 0.000000 0.000000 0.000000 -0.092658 0.371743 -8.150439 -1.395779 0.664992 -2.889989 0.464733 1.915108 0.847547 5.669493 -2.938482 -10.321793 0.000000 0.000000 0.000000 -7.812504 16.338079 -7.493067 -20.551535 20.893392 -4.782038 -102.378832 -32.452365 42.166339 0.000000 0.000000 0.000000 4.679985 -13.262395 -5.547087 25.856410 -24.968408 -6.434487 90.295873 35.933555 36.136049 0.000000 0.000000 0.000000 
0.078165 0.956608 -0.061943 -2.113963 -5.085362 9.893680 3.731529 -0.517928 -7.234935 3.244355 -0.233849 -2.168852 -2.751363 -1.268406 10.475295 0.000000 0.000000 0.000000 -1.037958 0.750091 -7.606670 -2.961140 0.335330 0.867081 0.879382 -3.551592 10.854669 0.000000 0.000000 0.000000 0.214482 0.394468 -8.143578 -1.247872 0.591384 -3.436992 0.875831 0.985366 1.519196 5.273370 -2.878157 -9.829890 0.000000 0.000000 0.000000 -8.830410 15.586425 -7.346959 -20.548592 21.384817 -4.814817 -101.825808 -29.879988 39.374009 0.000000 0.000000 0.000000 4.372684 -13.534356 -5.611985 25.238134 -24.890367 -6.342812 91.340996 34.416177 34.222575 0.000000 0.000000 0.000000 
0.078763 0.955393 -0.061796 -1.968870 -6.110238 9.583865 3.760950 -0.472136 -6.595488 2.802083 -0.214731 -1.885286 -2.281069 -0.785476 9.881777 0.000000 0.000000 0.000000 -1.296169 0.758937 -7.724944 -3.040516 0.386607 1.547264 1.320969 -2.652874 10.484328 0.000000 0.000000 0.000000 -0.056474 0.381032 -7.852964 -0.879380 0.424641 -3.518109 1.118253 0.502800 1.417617 4.982432 -2.786205 -9.524054 0.000000 0.000000 0.000000 -9.758136 14.905192 -7.197041 -20.638776 20.147942 -4.676770 -103.284285 -28.554692 39.165568 0.000000 0.000000 0.000000 4.854288 -14.237565 -6.021824 25.073860 -24.541546 -6.274512 94.664512 32.040094 32.883502 0.000000 0.000000 0.000000 
0.079191 0.953944 -0.061861 -2.236332 -7.385403 9.304878 4.128744 -0.417991 -6.079970 2.848049 -0.266375 -1.184215 -1.680219 -0.105412 9.191678 0.000000 0.000000 0.000000 -1.020223 0.761365 -7.728765 -3.216321 0.449284 2.219420 2.017769 -1.336256 10.275195 0.000000 0.000000 0.000000 0.160114 0.385893 -7.620384 -0.714832 0.342706 -3.509525 1.436726 -0.139716 1.367121 4.369169 -2.570757 -8.462768 0.000000 0.000000 0.000000 -10.643541 14.419092 -7.062073 -21.379208 18.979447 -4.733681 -103.756572 -27.254119 38.476120 0.000000 0.000000 0.000000 5.332519 -13.902684 -6.061606 25.763381 -23.344889 -6.317631 96.843730 31.333312 32.554837 0.000000 0.000000 0.000000 
0.079334 0.952453 -0.062102 -2.343299 -8.572056 8.809111 4.335763 -0.368107 -5.541081 2.623052 -0.287457 -0.469594 -1.027254 0.772390 8.655234 0.000000 0.000000 0.000000 -1.290191 0.752254 -7.657181 -3.065619 0.483839 2.975996 2.255461 -0.893312 10.045812 0.000000 0.000000 0.000000 0.213057 0.384362 -7.406289 -0.523372 0.250762 -3.029904 1.661478 -0.438191 0.679077 4.120075 -2.473903 -8.044713 0.000000 0.000000 0.000000 -11.406116 13.317108 -6.620949 -21.741162 17.708223 -4.665855 -104.250528 -26.758260 38.648461 0.000000 0.000000 0.000000 6.087737 -13.224843 -6.046823 26.468759 -21.839003 -6.231335 97.428663 31.601850 32.729298 0.000000 0.000000 0.000000 
0.079514 0.951681 -0.062595 -2.287866 -9.447912 8.408457 4.186060 -0.337865 -5.071715 2.603250 -0.327261 0.257309 -0.374356 1.656660 7.915789 0.000000 0.000000 0.000000 -1.596283 0.732151 -7.460255 -3.011540 0.489214 3.165687 2.839471 0.283293 9.855369 0.000000 0.000000 0.000000 0.303580 0.398870 -7.488991 -0.349928 0.168395 -3.117679 1.466621 -0.732006 0.780685 3.678788 -2.248434 -7.676929 0.000000 0.000000 0.000000 -12.297468 12.217991 -6.175660 -22.229438 15.763957 -4.581688 -102.622718 -27.148900 38.490946 0.000000 0.000000 0.000000 7.145716 -11.752220 -5.821293 28.042768 -19.784646 -6.242326 95.052449 32.637707 32.241253 0.000000 0.000000 0.000000 
0.079765 0.951139 -0.063354 -2.250765 -10.222953 7.855336 4.110211 -0.305112 -4.615745 2.546246 -0.359780 0.984025 0.182517 2.580571 7.806088 0.000000 0.000000 0.000000 -1.782664 0.701990 -7.147347 -3.062092 0.507251 3.352188 3.109776 0.883332 9.605747 0.000000 0.000000 0.000000 0.366440 0.400335 -7.389237 -0.370713 0.173194 -2.647600 1.525513 -0.711997 0.369818 3.503145 -2.145388 -7.577937 0.000000 0.000000 0.000000 -12.674478 10.424024 -5.330759 -23.070194 14.292242 -4.606091 -99.343394 -27.920009 37.582583 0.000000 0.000000 0.000000 7.981209 -9.936194 -5.366957 29.451723 -16.995519 -5.962382 90.996346 34.325695 31.757250 0.000000 0.000000 0.000000 
0.080085 0.950717 -0.064513 -2.226456 -10.839213 7.384530 4.170933 -0.277304 -4.332184 2.455624 -0.389881 1.830958 0.858768 3.742368 7.695191 0.000000 0.000000 0.000000 -1.880130 0.679225 -6.906677 -3.105214 0.514653 3.400669 3.375428 1.282753 9.709215 0.000000 0.000000 0.000000 0.670336 0.417443 -7.428831 -0.361910 0.165505 -2.496014 1.096765 -0.397970 0.592805 3.422940 -2.120082 -7.268527 0.000000 0.000000 0.000000 -13.419146 8.609652 -4.543315 -23.725362 12.151587 -4.504162 -95.031691 -29.344265 36.586132 0.000000 0.000000 0.000000 9.287415 -7.607479 -4.774856 30.669301 -13.981378 -5.526962 85.062184 35.270233 29.722030 0.000000 0.000000 0.000000 
0.080330 0.949595 -0.066169 -2.258462 -10.915767 7.240695 4.176952 -0.271318 -4.259651 2.413665 -0.403647 2.262733 1.044703 3.968212 7.180836 0.000000 0.000000 0.000000 -1.775196 0.654119 -6.641912 -3.270601 0.538977 3.460831 3.491288 1.854986 9.165229 0.000000 0.000000 0.000000 0.717049 0.421410 -7.459868 -0.253157 0.121260 -1.882416 1.071963 -0.178488 0.129608 3.652229 -2.252226 -7.290390 0.000000 0.000000 0.000000 -14.221321 5.794864 -3.272919 -24.731079 10.666967 -4.505524 -90.354362 -30.998285 35.503156 0.000000 0.000000 0.000000 10.780559 -4.980889 -4.025247 31.060974 -11.571753 -4.983593 78.180972 35.902300 27.196624 0.000000 0.000000 0.000000 
0.080396 0.948115 -0.068105 -2.204254 -10.743900 6.971140 4.201458 -0.263909 -4.166636 2.225325 -0.405343 2.938225 1.505478 4.659813 6.306362 0.000000 0.000000 0.000000 -1.805683 0.629649 -6.381378 -3.524376 0.576704 3.541650 3.604199 2.599093 8.417267 0.000000 0.000000 0.000000 0.842782 0.405163 -7.179117 -0.126677 0.063869 -1.979130 0.654492 0.169143 0.524185 3.789786 -2.319696 -7.474483 0.000000 0.000000 0.000000 -15.552173 3.647293 -2.365162 -25.222855 8.394272 -4.292027 -84.340732 -32.779283 33.657776 0.000000 0.000000 0.000000 12.275410 -2.501010 -3.205529 31.152006 -9.503608 -4.509503 71.926062 36.208176 24.908352 0.000000 0.000000 0.000000 
0.080319 0.946451 -0.069767 -2.240099 -10.363779 6.558749 4.260987 -0.257113 -4.105486 2.179125 -0.430028 3.711708 1.808171 5.138073 5.694537 0.000000 0.000000 0.000000 -1.596359 0.573416 -5.796754 -3.734614 0.584399 3.300051 3.703963 2.898243 8.345654 0.000000 0.000000 0.000000 1.027612 0.400402 -7.056796 -0.165541 0.085941 -1.280520 0.340186 0.643220 0.298841 4.256210 -2.599701 -7.450210 0.000000 0.000000 0.000000 -16.749199 1.189570 -1.323467 -25.421578 6.355631 -3.990820 -79.405210 -34.096779 31.889053 0.000000 0.000000 0.000000 13.313953 -0.460105 -2.361731 31.425477 -8.819623 -4.391188 67.993690 36.297881 23.607860 0.000000 0.000000 0.000000 
0.080196 0.945036 -0.070744 -2.210775 -9.933262 6.164849 4.271575 -0.250596 -3.993940 2.077441 -0.437343 4.286552 1.897667 5.248579 5.244947 0.000000 0.000000 0.000000 -1.494650 0.541651 -5.471573 -3.890246 0.594920 3.173598 3.705110 3.188751 7.986893 0.000000 0.000000 0.000000 1.107214 0.371248 -6.625581 0.058438 -0.017161 -1.612010 -0.195126 1.149910 0.805605 4.988266 -3.054019 -7.669777 0.000000 0.000000 0.000000 -17.712798 -0.605599 -0.590315 -25.307165 5.142486 -3.776966 -76.837158 -35.141657 31.155041 0.000000 0.000000 0.000000 13.937633 0.731759 -1.751877 31.714204 -8.364329 -4.390803 66.036384 35.970104 22.836952 0.000000 0.000000 0.000000 
0.080109 0.944495 -0.070996 -2.205948 -9.517204 6.022000 4.374162 -0.237863 -3.769022 1.990663 -0.414111 4.014161 1.998351 5.470942 5.256217 0.000000 0.000000 0.000000 -1.483543 0.511204 -5.139723 -3.883940 0.573488 2.897657 3.517729 2.945981 7.815169 0.000000 0.000000 0.000000 1.105133 0.356748 -6.444302 0.174840 -0.068782 -1.510814 -0.386426 1.459584 0.813345 5.458807 -3.403770 -7.218884 0.000000 0.000000 0.000000 -18.506920 -1.493396 -0.288126 -24.818813 4.861884 -3.632712 -77.703825 -35.506742 31.725800 0.000000 0.000000 0.000000 14.097632 1.145718 -1.472941 31.521217 -9.044692 -4.538345 67.378520 35.838634 23.478148 0.000000 0.000000 0.000000 
0.080061 0.944020 -0.070689 -2.370442 -9.547749 6.397150 4.782961 -0.228620 -3.756432 1.737012 -0.349541 3.356755 2.357569 6.238105 5.698238 0.000000 0.000000 0.000000 -1.267495 0.544721 -5.523859 -4.008460 0.592553 2.957785 3.625876 3.442411 7.422122 0.000000 0.000000 0.000000 1.399791 0.389808 -6.813219 0.232017 -0.093964 -1.595326 -0.742152 1.888551 0.939699 6.176720 -3.848522 -7.466002 0.000000 0.000000 0.000000 -17.608542 -1.714255 -0.237491 -25.199451 5.670241 -3.793195 -81.990987 -35.135771 33.596774 0.000000 0.000000 0.000000 13.589105 0.808032 -1.471072 31.255954 -9.377447 -4.601931 71.284522 35.219401 24.801875 0.000000 0.000000 0.000000 
